<?xml version="1.0" encoding="UTF-8"?>
<svg width="50px" height="50px" viewBox="0 0 50 50" version="1.1" xmlns="http://www.w3.org/2000/svg" xmlns:xlink="http://www.w3.org/1999/xlink">
    <title>Group 13</title>
    <g id="Page-1" stroke="none" stroke-width="1" fill="none" fill-rule="evenodd">
        <g id="HOME-PAGE" transform="translate(-285.000000, -3855.000000)">
            <g id="Group-13" transform="translate(285.000000, 3855.000000)">
                <circle id="Oval" fill="#FFFFFF" cx="25" cy="25" r="25"></circle>
                <path d="M26.6405177,17.2414057 L26.6405177,14.2273572 C26.6405177,12.7819805 27.6022911,12.4358626 28.298439,12.4358626 C28.9729488,12.4358626 32.5327789,12.4358626 32.5327789,12.4358626 L32.5327789,6 L26.7024472,6 C20.2170053,6 18.7642723,10.765435 18.7642723,13.8611852 L18.7642723,17.2414057 L15,17.2414057 L15,24.756473 L18.8053099,24.756473 C18.8053099,33.2890973 18.8053099,43.533 18.8053099,43.533 L26.3547464,43.533 C26.3547464,43.533 26.3547464,33.1464907 26.3547464,24.756473 L31.9395983,24.756473 L32.1850781,21.8033293 L32.635,17.2414057 L26.6405177,17.2414057" id="Fill-40" fill="#222E54"></path>
            </g>
        </g>
    </g>
</svg>