<?xml version="1.0" encoding="UTF-8"?>
<svg width="53px" height="54px" viewBox="0 0 53 54" version="1.1" xmlns="http://www.w3.org/2000/svg" xmlns:xlink="http://www.w3.org/1999/xlink">
    <title>Group 28</title>
    <g id="Page-1" stroke="none" stroke-width="1" fill="none" fill-rule="evenodd">
        <g id="HOME-PAGE" transform="translate(-583.000000, -3699.000000)" fill="#222E54">
            <g id="Group-28" transform="translate(583.000000, 3700.000000)">
                <path d="M43.8193726,9.12605001 C39.3897091,4.68238441 33.2695391,1.94534401 26.5005367,1.94534401 C19.7304609,1.94534401 13.6102909,4.68238441 9.18062735,9.12605001 C4.7375471,13.5552254 2,19.6765358 2,26.4450757 C2,33.2141523 4.7375471,39.3359993 9.18062735,43.764638 C13.6102909,48.2088403 19.7304609,50.945344 26.5005367,50.945344 C33.2695391,50.945344 39.3897091,48.2088403 43.8193726,43.764638 C48.2629896,39.3359993 51,33.2141523 51,26.4450757 C51,19.6765358 48.2629896,13.5552254 43.8193726,9.12605001 Z M26.5005352,-0.0546559907 C33.8220445,-0.0546559907 40.4398199,2.90905418 45.2380548,7.70728916 C50.0362898,12.5055241 53,19.1232995 53,26.4448089 C53,33.7668534 50.0362898,40.3846287 45.2380548,45.1828637 C40.4398199,49.9810987 33.8220445,52.945344 26.5005352,52.945344 C19.1779555,52.945344 12.5607153,49.9810987 7.76301547,45.1828637 C2.96371017,40.3846287 0,33.7668534 0,26.4448089 C0,19.1232995 2.96371017,12.5055241 7.76301547,7.70728916 C12.5607153,2.90905418 19.1779555,-0.0546559907 26.5005352,-0.0546559907 L26.5005352,-0.0546559907 Z" id="Fill-21"></path>
                <path d="M19.0002879,11.945344 C17.3423553,11.945344 16,13.2875705 16,14.945344 C16,16.6031175 17.3423553,17.945344 19.0002879,17.945344 C20.6582206,17.945344 22,16.6031175 22,14.945344 C22,13.2875705 20.6582206,11.945344 19.0002879,11.945344 Z M39.8697218,24.8617311 C39.5064256,21.829118 38.1422116,19.945344 34.1051758,19.945344 C31.7379254,19.945344 30.1406934,20.8284469 29.4728852,22.1093488 L29.4003319,22.1093488 L29.4003319,19.945344 L25,19.945344 L25,35.945344 L29.603693,35.945344 L29.603693,28.0119123 C29.603693,25.9209178 30.0098856,23.905081 32.5376006,23.905081 C35.0774961,23.905081 35.2660288,26.2891905 35.2660288,28.1584698 L35.2660288,35.945344 L40,35.945344 L40,27.1577987 C40,26.3332114 39.9560443,25.5682134 39.8697218,24.8617311 Z M16,24.1992697 L16,35.945344 L22,35.945344 L22,19.945344 L16,19.945344 L16,24.1992697 L16,24.1992697 Z" id="Fill-47"></path>
            </g>
        </g>
    </g>
</svg>