<svg id="Calque_1" data-name="Calque 1" xmlns="http://www.w3.org/2000/svg" viewBox="0 0 680.31 239.31"><defs><style>.cls-1{fill:#ffffff;}</style></defs><path class="cls-1" d="M291.2,38.48q-8,0-16,0c-3.33,0-4.09.82-4.09,4.21q0,19.26,0,38.5v5l-.55.22c-.68-.78-1.37-1.55-2-2.34q-18.14-21.33-36.22-42.7a7.51,7.51,0,0,0-6.5-3c-3.8.15-7.61,0-11.42,0-3,0-4,.94-4,3.87q0,40.18,0,80.38c0,3,.92,3.83,4,3.85,4.86,0,9.72,0,14.57,0,5.31,0,5.53-.22,5.53-5.4v-39c0-.8.1-1.61.19-2.9.91,1,1.41,1.51,1.88,2.06q18.21,21.1,36.39,42.25a7.44,7.44,0,0,0,6.45,3c4-.17,7.94,0,11.9,0,3.09,0,3.95-.82,3.95-3.85q0-40.19,0-80.38C295.18,39.36,294.27,38.5,291.2,38.48Z"/><path class="cls-1" d="M158.69,57.56h30.8c3.5,0,4.27-.78,4.28-4.27s0-7.27,0-10.9c0-3-.9-3.9-3.94-3.9-20.65,0-33.47,0-54.12,0-3.21,0-4,.83-4,4.05q0,40.08,0,80.14c0,3.15.73,3.9,3.85,3.91,20.73,0,33.63,0,54.36,0,3,0,3.81-.84,3.85-3.94,0-3.47,0-6.94,0-10.41,0-4-.65-4.65-4.63-4.66H155.72c0-4.34.14-8.36-.06-12.37-.12-2.42.54-3.16,3.06-3.12,10.61.15,16,.07,26.61.06,3.63,0,4.3-.68,4.31-4.2s0-6.78,0-10.17c0-3.6-.65-4.27-4.23-4.28H155.89V57.56Z"/><path class="cls-1" d="M389.11,76.23c1.61-11.84-1.4-22.32-11.32-29.94-6.78-5.2-14.71-7.44-23.12-7.62-12.86-.26-25.74-.17-38.61-.19-3,0-4,1-4,3.9q0,40.18,0,80.35c0,3,.92,3.83,4,3.85,5.18,0,10.36,0,15.54,0,4.06,0,4.55-.51,4.55-4.66,0-5.8,0-11.6,0-17.84,4.86,0,9.37,0,13.88,0a50.55,50.55,0,0,0,19.25-3.32C380.49,96.28,387.48,88.2,389.11,76.23Zm-24.65-.72c-2,5.68-6.5,8.48-12.13,9-5.2.49-10.48.1-16.16.1v-14c0-3.63,0-7.26,0-10.89,0-1.15.07-2.08,1.63-2,5,.15,10.07-.13,15,.41C362.1,59.17,367.36,67.2,364.46,75.51Z"/><path class="cls-1" d="M115.54,107H81.82c.94-1.3,1.49-2.08,2.06-2.85C96.29,87.29,103.41,70.4,116,53.67A15.26,15.26,0,0,0,119.37,43c-.26-3.86-.69-4.49-4.6-4.5h-63c-3.43,0-4.14.74-4.15,4.13,0,3.87,0,7.75,0,11.62,0,3.11.78,3.89,3.85,3.91,5.35,0,10.69,0,16,0H86.94C85.83,59.6,61.81,94.48,49,110.8a16.15,16.15,0,0,0-3.79,12c.24,2.86.94,3.75,3.84,3.76,24.21,0,43.2,0,67.41,0,3,0,3.65-.75,3.67-3.8,0-3.72,0-7.43,0-11.14C120.1,107.54,119.57,107,115.54,107Z"/><path class="cls-1" d="M612,121.76V58.24h3c7.12,0,9,0,16.15,0,3.35,0,4-.69,4.05-3.95,0-4,0-7.91,0-11.86,0-3.1-.78-3.87-3.85-3.94-1.29,0-2.59,0-3.88,0H569.64c-4.66,0-5.1.45-5.1,5.16q0,4.73,0,9.44c0,4.79.37,5.17,5.06,5.17h18.24v64.22c0,3.41.71,4.11,4.13,4.12,5,0,10,0,15.06,0C611.43,126.58,612,126.07,612,121.76Z"/><path class="cls-1" d="M457.2,123.14c0-4,0-7.9,0-11.85,0-3.62-.6-4.21-4.24-4.21H423v-3.2q0-30.62,0-61.23c0-3.47-.66-4.15-4.08-4.16-5.34,0-10.69,0-16,0-3,0-3.86.93-3.87,4q0,40.17,0,80.34c0,2.94.81,3.79,3.73,3.79,20.47,0,30.51,0,51,0C456.51,126.57,457.17,125.91,457.2,123.14Z"/><rect class="cls-1" x="523.71" y="159.85" width="4.43" height="5.65"/><path class="cls-1" d="M546,168.26c-3.57,0-6.54,1.29-8.3,3.53v-2.86h-4.21v24.91h4.43V179.78c0-4.72,2.62-7.42,7.2-7.42,4.77,0,7.19,2.72,7.19,8.08V194h4.32V179.78C556.59,172.56,552.72,168.36,546,168.26Z"/><path class="cls-1" d="M629.45,159.85h-4.32v9.08h-4.21v-.11h-5.2v-1.11c0-4.48,2.69-4.64,4.47-4.75l.73-.05v-3.73h-.55c-6,0-9,2.76-9,8.2v1.44h-3.54v3.76h3.54V194h4.32V172.58h9.41V194h4.32V172.58h5.31v-3.65h-5.31Z"/><path class="cls-1" d="M593.68,168.15A13.18,13.18,0,1,0,607,181.33,12.94,12.94,0,0,0,593.68,168.15Zm8.86,13.29a8.86,8.86,0,1,1-17.71,0,9.11,9.11,0,0,1,2.63-6.58,8.54,8.54,0,0,1,6-2.39h.19A8.72,8.72,0,0,1,602.54,181.44Z"/><path class="cls-1" d="M382,168.15a11.74,11.74,0,0,0-9.19,4.21V159.85h-4.43V194h4.31v-3.62a11.24,11.24,0,0,0,9.19,4.28c7.39,0,13-5.71,13-13.28S389.43,168.15,382,168.15Zm8.41,13.18c0,4.37-2.88,9.08-9.19,9.08a8.73,8.73,0,0,1-8.75-9.08,8.87,8.87,0,0,1,9-9A8.77,8.77,0,0,1,390.4,181.33Z"/><path class="cls-1" d="M569.93,178.91c-3.14-.92-4.28-1.87-4.37-3.59a3,3,0,0,1,.8-2.25,3.65,3.65,0,0,1,2.74-1,3.21,3.21,0,0,1,3.55,3.43V176h4.45l0-.58c-.25-5.29-4.39-7.17-7.86-7.17-4.76,0-8.09,3.05-8.09,7.44s3.25,5.74,6.61,6.72c4.18,1.12,5.48,2.17,5.57,4.44a4,4,0,0,1-4.09,4,4.16,4.16,0,0,1-4.43-4.23l0-.53h-4.3v.55c0,5.31,4.4,8.09,8.75,8.09a8.89,8.89,0,0,0,6.47-2.64,7.47,7.47,0,0,0,2-5.57C577.62,180.9,573.35,179.8,569.93,178.91Z"/><path class="cls-1" d="M513.85,159.85v12.37a11.73,11.73,0,0,0-9.19-4.07c-7.32,0-12.84,5.67-12.84,13.18s5.57,13.28,13,13.28a11.21,11.21,0,0,0,9.3-4.28V194h4.32l-.12-34.1Zm.23,21.5a8.53,8.53,0,0,1-2.5,6.45,9,9,0,0,1-6.36,2.61A9,9,0,1,1,511.47,175,8.6,8.6,0,0,1,514.08,181.35Z"/><polygon class="cls-1" points="413.94 168.93 406.57 187.24 399.41 168.93 395.49 168.93 394.98 169.68 404.19 192.94 400.19 202.26 400.7 203.03 404.61 203.03 418.37 169.69 417.86 168.93 413.94 168.93"/><path class="cls-1" d="M483.41,159.85v12.37a11.76,11.76,0,0,0-9.19-4.07c-7.33,0-12.85,5.67-12.85,13.18s5.57,13.28,13,13.28a11.2,11.2,0,0,0,9.3-4.28V194H488l-.12-34.1Zm.33,21.5a8.55,8.55,0,0,1-2.48,6.44,9.64,9.64,0,0,1-6.49,2.62,8.74,8.74,0,0,1-9.08-9,8.88,8.88,0,0,1,9.08-9.08,8.65,8.65,0,0,1,6.36,2.61A8.56,8.56,0,0,1,483.74,181.35Z"/><path class="cls-1" d="M442.18,159.85l-13.87,33.33.51.77h4.36l3.66-9.3h14.64l3.88,9.3h4.35l.51-.76-13.76-33.34Zm8,20.7H438.6l5.73-14.45Z"/><rect class="cls-1" x="523.71" y="168.93" width="4.43" height="25.02"/><path class="cls-1" d="M517.56,128.5c23.26-1.87,42.12-17.57,43.33-43,.82-17.27-5.1-31.52-20-41.28-8.79-5.77-18.72-7.78-29.32-7.94a62.2,62.2,0,0,0-17.38,2.6l8.29,19.8a27,27,0,0,1,9.41-1.61c14.52,0,24.59,10.38,24.69,25.4S526.51,108,511.86,108s-24.56-10.31-24.6-25.39a31.46,31.46,0,0,1,.55-6L465.32,66.27A50.42,50.42,0,0,0,463,86.87c1.41,17.43,10.07,30.21,26.24,37.46C498.26,128.36,507.78,129.28,517.56,128.5Z"/><path class="cls-1" d="M465.16,55.5l34.72,19.8a2,2,0,0,0,2.74-2.79L482.85,39.29a2,2,0,0,0-2.44-.87c-3.71,1.36-12.85,5.56-16.19,14.65A2,2,0,0,0,465.16,55.5Z"/></svg>