<svg id="Calque_1" data-name="Calque 1" xmlns="http://www.w3.org/2000/svg" viewBox="0 0 520 520"><defs><style>.cls-1,.cls-2{fill:#222e54;}.cls-2{font-size:19.62px;font-family:ITCAvantGardeStd-Bk, ITC Avant Garde Gothic Std;}.cls-3{letter-spacing:-0.03em;}</style></defs><path class="cls-1" d="M35.7,279.8h-9L58,204.9h8.1l31,74.9H88l-8.7-21.1H44.4Zm26.1-65.5L46.9,251.9H76.7Z"/><path class="cls-1" d="M159.7,279.8h-7.2V268.6c-3.9,7.2-11.2,12.7-22.5,12.7-17.4,0-28.1-13.5-28.1-28.8s11.7-28.7,28-28.7c12,0,19.9,6.9,22.3,12.6V204.9h7.5Zm-50.4-27.2c.1,10.9,7.7,21.7,21.8,21.7a21.7,21.7,0,0,0,15.5-6.3,21.4,21.4,0,0,0,6.1-15.7,20.6,20.6,0,0,0-6.3-15.3,21,21,0,0,0-15.4-6.3c-12.5,0-21.7,9.5-21.7,21.8Z"/><path class="cls-1" d="M228.9,279.8h-7.2V268.6c-3.8,7.2-11.1,12.7-22.4,12.7-17.4,0-28.2-13.5-28.2-28.8s11.8-28.7,28.1-28.7c11.9,0,19.8,6.9,22.2,12.6V204.9h7.5Zm-50.4-27.2c.1,10.9,7.7,21.7,21.9,21.7a21.8,21.8,0,0,0,15.5-6.3,21.3,21.3,0,0,0,6-15.7,20.9,20.9,0,0,0-6.2-15.3,21.2,21.2,0,0,0-15.4-6.3c-12.6,0-21.8,9.5-21.8,21.8Z"/><path class="cls-1" d="M243.7,204.9h7.5v10.4h-7.5Zm0,20.4h7.5v54.5h-7.5Z"/><path class="cls-1" d="M265.8,225.3h7.1c0,3.1,0,6.1-.1,9.8,3.1-7.1,10.5-11.5,20.2-11.3,16.9.2,22.9,11.8,22.9,25v31h-7.4V250.3c0-11.7-5.2-19.7-17.5-19.5s-17.7,6.9-17.7,18.2v30.8h-7.5Z"/><path class="cls-1" d="M354.9,239c0-5.8-3.8-9-9.3-9s-9.6,4.1-9.4,8.8,4.1,7.3,10.7,9.2,16.5,4.4,16.9,16c.4,10-7.7,17.3-18,17.3-8.8,0-18.5-5.5-18.6-17h7.3c.4,7.5,5.9,10.9,11.4,10.9a10.1,10.1,0,0,0,10.5-10.3c-.2-6.2-4.2-8.7-13.7-11.4-7.7-2.3-13.8-5.5-14-14.1s7.8-15.6,17-15.6c7.6,0,16.1,4.2,16.6,15.2Z"/><path class="cls-1" d="M372.6,252.5c0-15.2,11.4-28.7,28.9-28.7s28.9,13.5,28.9,28.8-11.3,28.6-28.9,28.6-28.9-13.3-28.9-28.6Zm7.4.2a21.2,21.2,0,0,0,21.5,21.6c12.1,0,21.4-9.3,21.4-21.7s-9.3-21.8-21.4-21.8S380,240.1,380,252.6Z"/><path class="cls-1" d="M443,231.3h-8v-6h8v-4.4c0-16.8,13.3-17.3,19.1-17.3v6c-3.7.2-11.7.2-11.7,12v3.7h11.7v6H450.4v48.5H443Z"/><path class="cls-1" d="M474.3,231.3H463.6v-6h10.7V204.9h7.4v20.4h11.9v6H481.7v48.5h-7.4Z"/><text class="cls-2" transform="translate(236.6 317.2)">da<tspan class="cls-3" x="26.8" y="0">t</tspan><tspan x="32.4" y="0">a science made simple</tspan></text></svg>