<?xml version="1.0" encoding="UTF-8"?>
<svg width="50px" height="40px" viewBox="0 0 50 40" version="1.1" xmlns="http://www.w3.org/2000/svg" xmlns:xlink="http://www.w3.org/1999/xlink">
    <title>Fill 50</title>
    <g id="Page-1" stroke="none" stroke-width="1" fill="none" fill-rule="evenodd">
        <g id="HOME-PAGE" transform="translate(-378.000000, -3705.000000)" fill="#222E54">
            <path d="M422.116774,3711.34588 C424.257837,3710.07195 425.883661,3708.11854 426.645147,3705.73191 C424.665282,3706.89803 422.442137,3707.73874 420.110208,3708.19964 C418.26385,3706.22051 415.581835,3705 412.599181,3705 C406.959236,3705 402.348781,3709.52896 402.348781,3715.08753 C402.348781,3715.90154 402.485255,3716.66114 402.647442,3717.39405 C394.106925,3716.98655 386.540517,3712.9729 381.496905,3706.84363 C380.629601,3708.36284 380.08766,3710.07195 380.08766,3711.91558 C380.08766,3715.44063 381.931051,3718.53247 384.641745,3720.32268 C382.96153,3720.29499 381.388121,3719.83408 380.006567,3719.07448 C380.006567,3719.12888 380.006567,3719.15657 380.006567,3719.20998 C380.006567,3720.5116 380.250836,3721.70541 380.710694,3722.84383 C381.958741,3726.01775 384.80591,3728.40339 388.250401,3729.0819 C387.353429,3729.3262 386.486125,3729.46071 385.537728,3729.46071 C384.887003,3729.46071 384.236278,3729.37961 383.611266,3729.2441 C384.941395,3733.25775 388.70927,3736.18639 393.185229,3736.29519 C389.658656,3739.00722 385.266758,3740.60754 380.467414,3740.60754 C379.625823,3740.60754 378.840602,3740.55215 378,3740.47104 C382.555074,3743.31957 387.950751,3745 393.72717,3745 C409.752013,3745 419.64936,3733.90856 422.22358,3722.38292 C422.686406,3720.32268 422.901996,3718.28817 422.901996,3716.28134 C422.901996,3715.84714 422.901996,3715.38722 422.901996,3714.97972 C424.881861,3713.5426 426.645147,3711.75239 428,3709.74556 C426.182322,3710.53286 424.204434,3711.07487 422.116774,3711.34588 Z" id="Fill-50"></path>
        </g>
    </g>
</svg>