<?xml version="1.0" encoding="UTF-8"?>
<svg width="50px" height="40px" viewBox="0 0 50 40" version="1.1" xmlns="http://www.w3.org/2000/svg" xmlns:xlink="http://www.w3.org/1999/xlink">
    <title>Fill 50</title>
    <g id="Page-1" stroke="none" stroke-width="1" fill="none" fill-rule="evenodd">
        <g id="HOME-PAGE" transform="translate(-385.000000, -3860.000000)" fill="#FFFFFF">
            <path d="M429.116774,3866.34588 C431.257837,3865.07195 432.883661,3863.11854 433.645147,3860.73191 C431.665282,3861.89803 429.442137,3862.73874 427.110208,3863.19964 C425.26385,3861.22051 422.581835,3860 419.599181,3860 C413.959236,3860 409.348781,3864.52896 409.348781,3870.08753 C409.348781,3870.90154 409.485255,3871.66114 409.647442,3872.39405 C401.106925,3871.98655 393.540517,3867.9729 388.496905,3861.84363 C387.629601,3863.36284 387.08766,3865.07195 387.08766,3866.91558 C387.08766,3870.44063 388.931051,3873.53247 391.641745,3875.32268 C389.96153,3875.29499 388.388121,3874.83408 387.006567,3874.07448 C387.006567,3874.12888 387.006567,3874.15657 387.006567,3874.20998 C387.006567,3875.5116 387.250836,3876.70541 387.710694,3877.84383 C388.958741,3881.01775 391.80591,3883.40339 395.250401,3884.0819 C394.353429,3884.3262 393.486125,3884.46071 392.537728,3884.46071 C391.887003,3884.46071 391.236278,3884.37961 390.611266,3884.2441 C391.941395,3888.25775 395.70927,3891.18639 400.185229,3891.29519 C396.658656,3894.00722 392.266758,3895.60754 387.467414,3895.60754 C386.625823,3895.60754 385.840602,3895.55215 385,3895.47104 C389.555074,3898.31957 394.950751,3900 400.72717,3900 C416.752013,3900 426.64936,3888.90856 429.22358,3877.38292 C429.686406,3875.32268 429.901996,3873.28817 429.901996,3871.28134 C429.901996,3870.84714 429.901996,3870.38722 429.901996,3869.97972 C431.881861,3868.5426 433.645147,3866.75239 435,3864.74556 C433.182322,3865.53286 431.204434,3866.07487 429.116774,3866.34588 Z" id="Fill-50"></path>
        </g>
    </g>
</svg>