<?xml version="1.0" encoding="UTF-8"?>
<svg width="55px" height="41px" viewBox="0 0 55 41" version="1.1" xmlns="http://www.w3.org/2000/svg" xmlns:xlink="http://www.w3.org/1999/xlink">
    <title>Group 27</title>
    <g id="Page-1" stroke="none" stroke-width="1" fill="none" fill-rule="evenodd">
        <g id="HOME-PAGE" transform="translate(-485.000000, -3860.000000)">
            <g id="Group-27" transform="translate(485.000000, 3860.000000)">
                <path d="M52.2579912,3.06135102 C50.1726728,0.758154078 47.8166327,0.728314195 46.7739736,0.575799234 C39.0828671,-6.39488462e-14 27.5462075,-6.39488462e-14 27.5462075,-6.39488462e-14 L27.4853223,-6.39488462e-14 C27.4853223,-6.39488462e-14 15.9801925,-6.39488462e-14 8.28691166,0.575799234 C7.18554174,0.728314195 4.85994425,0.758154078 2.77353866,3.06135102 C1.13289976,4.8185886 0.56862435,8.84918324 0.56862435,8.84918324 C0.56862435,8.84918324 0,13.5760418 0,18.2421155 L0,22.6970996 C0,27.4239582 0.56862435,32.091137 0.56862435,32.091137 C0.56862435,32.091137 1.13289976,36.1217316 2.77353866,37.9088091 C4.85994425,40.2418459 7.60412754,40.1523263 8.85553601,40.3932557 C13.2370965,40.8485902 27.5462075,41 27.5462075,41 C27.5462075,41 39.0828671,40.9392151 46.7739736,40.3932557 C47.8166327,40.2418459 50.1726728,40.2418459 52.2579912,37.9088091 C53.8997173,36.1217316 54.4639927,32.091137 54.4639927,32.091137 C54.4639927,32.091137 55,27.4239582 55,22.6970996 L55,18.2421155 C55,13.5760418 54.4639927,8.84918324 54.4639927,8.84918324 C54.4639927,8.84918324 53.8997173,4.8185886 52.2579912,3.06135102 Z" id="Path" fill="#FFFFFF"></path>
                <polygon id="Path" fill="#222E54" points="34.9872486 20.2125991 20 28.3622028 20 12 26.7881874 15.7277751"></polygon>
            </g>
        </g>
    </g>
</svg>